<svg width="89" height="89" viewBox="0 0 89 89" fill="none" xmlns="http://www.w3.org/2000/svg">
<path d="M47.492 82.6433C47.758 85.6845 50.4502 87.9594 53.4239 87.3183C74.8885 82.7222 90.0733 62.7473 88.1102 40.3079C85.9846 16.0129 64.5716 -1.95479 40.2766 0.170753C17.8372 2.13395 0.802513 20.5567 0.00352897 42.4933C-0.111408 45.5332 2.59641 47.7894 5.63759 47.5233L38.6266 44.6371C41.6678 44.3711 44.3397 46.6131 44.6058 49.6543L47.492 82.6433Z" fill="#8C78FF"/>
<g clip-path="url(#clip0_275_94)">
<path d="M14.2642 66.9899C14.2642 64.0725 15.4231 61.2746 17.486 59.2117C19.5489 57.1488 22.3468 55.9899 25.2642 55.9899C28.1815 55.9899 30.9794 57.1488 33.0423 59.2117C35.1052 61.2746 36.2642 64.0725 36.2642 66.9899C36.2642 69.9072 35.1052 72.7051 33.0423 74.768C30.9794 76.8309 28.1815 77.9899 25.2642 77.9899C22.3468 77.9899 19.5489 76.8309 17.486 74.768C15.4231 72.7051 14.2642 69.9072 14.2642 66.9899Z" fill="#8C78FF"/>
</g>
<defs>
<clipPath id="clip0_275_94">
<rect width="22" height="22" fill="white" transform="translate(14.2642 55.9899)"/>
</clipPath>
</defs>
</svg>
